<?xml version="1.0" standalone="no"?><!DOCTYPE svg PUBLIC "-//W3C//DTD SVG 1.1//EN" "http://www.w3.org/Graphics/SVG/1.1/DTD/svg11.dtd"><svg t="1640773522086" class="icon" viewBox="0 0 1024 1024" version="1.1" xmlns="http://www.w3.org/2000/svg" p-id="6597" xmlns:xlink="http://www.w3.org/1999/xlink" width="200" height="200"><defs><style type="text/css"></style></defs><path d="M211.968 272.298667a384 384 0 0 0 539.733333 539.733333L211.968 272.298667z m60.330667-60.330667l539.733333 539.733333a384 384 0 0 0-539.733333-539.733333zM512 981.333333C252.8 981.333333 42.666667 771.2 42.666667 512S252.8 42.666667 512 42.666667s469.333333 210.133333 469.333333 469.333333-210.133333 469.333333-469.333333 469.333333z" fill="#595959" p-id="6598"></path><path d="M512 512a128 128 0 1 1 0-256 128 128 0 0 1 0 256z m213.333333 213.333333H298.666667a213.333333 213.333333 0 0 1 426.666666 0z" fill="#595959" p-id="6599"></path></svg>