<?xml version="1.0" standalone="no"?><!DOCTYPE svg PUBLIC "-//W3C//DTD SVG 1.1//EN" "http://www.w3.org/Graphics/SVG/1.1/DTD/svg11.dtd"><svg t="1631181097984" class="icon" viewBox="0 0 1085 1024" version="1.1" xmlns="http://www.w3.org/2000/svg" p-id="15234" xmlns:xlink="http://www.w3.org/1999/xlink" width="135.625" height="128"><defs><style type="text/css"></style></defs><path d="M1007.013 1024c-1.626 0-3.252-0.482-4.577-1.506L860.039 919.672l-143.3 102.641a7.933 7.933 0 0 1-4.577 1.446c-1.265 0-2.47-0.24-3.554-0.783-2.65-1.325-4.277-3.976-4.277-6.867V808.72c0-2.47 1.205-4.759 3.253-6.204 1.325-0.964 2.891-1.446 4.578-1.446 0.783 0 1.626 0.12 2.41 0.422l50.597 16.384c3.313 0.964 5.782 3.915 5.782 7.409v77.282l84.63-60.657a8.118 8.118 0 0 1 4.639-1.446c1.626 0 3.253 0.482 4.638 1.506l83.306 60.175v-76.92c0-3.253 2.108-6.144 5.3-7.229l50.96-17.287c0.843-0.301 1.746-0.422 2.59-0.422 1.626 0 3.192 0.482 4.517 1.446 2.048 1.445 3.313 3.734 3.313 6.204v208.354c0 2.891-1.687 5.542-4.277 6.867a8.113 8.113 0 0 1-3.554 0.843z m-883.591-60.235C55.356 963.765 0 935.213 0 870.039V118.182C0 53.007 54.09 0 120.59 0h668.974c66.5 0 120.651 53.007 120.651 118.182v174.32c0 4.217-3.493 7.65-7.89 7.65H852.69c-4.337 0-7.831-3.433-7.831-7.65v-174.32c0-29.877-24.817-54.152-55.236-54.152H120.591c-30.419 0-55.236 24.275-55.236 54.152v751.796c0 29.877 19.998 26.203 51.561 26.203h477.727c4.457 0-6.988 31.443-6.988 35.659l15.06 24.094c0 4.337-3.615 7.77-7.952 7.77H123.422v0.06z m736.135-138.662c-123.904 0-224.677-98.786-224.677-220.28 0-121.435 100.773-220.22 224.677-220.22s224.738 98.785 224.738 220.22c0 121.494-100.834 220.28-224.738 220.28z m0-375.206c-87.16 0-157.997 69.512-157.997 154.926 0 85.413 70.837 154.925 157.997 154.925 87.16 0 158.058-69.512 158.058-154.925 0-85.414-70.897-154.926-158.058-154.926zM189.5 783.782c-4.397 0-8.011-3.072-8.011-6.807V729.57c0-3.735 3.614-6.807 8.011-6.807h404.24c4.456 0 8.07 3.072 8.07 6.807v47.405c0 3.735-3.614 6.807-8.07 6.807H189.5z m670.118-83.727c-53.61 0-97.1-42.707-97.1-95.232 0-52.465 43.49-95.172 97.1-95.172 53.489 0 97.099 42.707 97.099 95.172 0 52.525-43.61 95.232-97.1 95.232z m0-150.107c-30.901 0-55.959 24.636-55.959 54.875 0 30.298 25.058 54.874 55.959 54.874 30.84 0 55.898-24.576 55.898-54.874 0-30.239-25.058-54.875-55.898-54.875zM189.68 602.955c-4.518 0-8.132-3.011-8.132-6.746v-47.405c0-3.735 3.614-6.807 8.132-6.807l389.3 1.867c4.277 0 7.77 3.434 7.77 7.65v53.309c0 4.216-3.493 7.65-7.77 7.65l-389.3-9.518z m-0.181-181.248c-4.397 0-8.011-3.011-8.011-6.806v-47.345c0-3.735 3.614-6.807 8.011-6.807h404.24c4.456 0 8.07 3.072 8.07 6.807V414.9c0 3.795-3.614 6.806-8.07 6.806H189.5z m-0.422-180.766c-4.156 0-7.65-3.072-7.65-6.806v-47.406c0-3.734 3.494-6.746 7.65-6.746h526.397c4.216 0 7.59 3.012 7.59 6.746v47.406c0 3.734-3.434 6.806-7.59 6.806H189.078z" p-id="15235"></path></svg>