<?xml version="1.0" standalone="no"?><!DOCTYPE svg PUBLIC "-//W3C//DTD SVG 1.1//EN" "http://www.w3.org/Graphics/SVG/1.1/DTD/svg11.dtd"><svg t="1640773397926" class="icon" viewBox="0 0 1024 1024" version="1.1" xmlns="http://www.w3.org/2000/svg" p-id="5708" xmlns:xlink="http://www.w3.org/1999/xlink" width="200" height="200"><defs><style type="text/css"></style></defs><path d="M512 524.190476c-6.826667 0-12.190476-5.36381-12.190476-12.190476V78.506667c0-6.826667 5.36381-12.190476 12.190476-12.190477s12.190476 5.36381 12.190476 12.190477V512c0 6.826667-5.36381 12.190476-12.190476 12.190476z" p-id="5709"></path><path d="M512 241.859048a11.459048 11.459048 0 0 1-8.533333-3.657143c-4.87619-4.87619-4.87619-12.434286 0-17.310476l100.693333-100.693334c4.87619-4.87619 12.434286-4.87619 17.310476 0s4.87619 12.434286 0 17.310476l-100.693333 100.693334a11.459048 11.459048 0 0 1-8.777143 3.657143z" p-id="5710"></path><path d="M512 241.859048a11.459048 11.459048 0 0 1-8.533333-3.657143l-100.693334-100.693334c-4.87619-4.87619-4.87619-12.434286 0-17.310476s12.434286-4.87619 17.310477 0l100.693333 100.693334c4.87619 4.87619 4.87619 12.434286 0 17.310476a11.459048 11.459048 0 0 1-8.777143 3.657143zM512 368.39619a11.459048 11.459048 0 0 1-8.533333-3.657142c-4.87619-4.87619-4.87619-12.434286 0-17.310477l87.527619-87.527619c4.87619-4.87619 12.434286-4.87619 17.310476 0s4.87619 12.434286 0 17.310477l-87.527619 87.527619a11.459048 11.459048 0 0 1-8.777143 3.657142z" p-id="5711"></path><path d="M512 368.39619a11.459048 11.459048 0 0 1-8.533333-3.657142l-87.527619-87.527619c-4.87619-4.87619-4.87619-12.434286 0-17.310477s12.434286-4.87619 17.310476 0l87.527619 87.527619c4.87619 4.87619 4.87619 12.434286 0 17.310477a11.459048 11.459048 0 0 1-8.777143 3.657142z" p-id="5712"></path><path d="M512 957.68381c-6.826667 0-12.190476-5.36381-12.190476-12.190477V512c0-6.826667 5.36381-12.190476 12.190476-12.190476s12.190476 5.36381 12.190476 12.190476v433.493333c0 6.826667-5.36381 12.190476-12.190476 12.190477z" p-id="5713"></path><path d="M411.306667 906.971429a11.459048 11.459048 0 0 1-8.533334-3.657143c-4.87619-4.87619-4.87619-12.434286 0-17.310476l100.693334-100.693334c4.87619-4.87619 12.434286-4.87619 17.310476 0s4.87619 12.434286 0 17.310476l-100.693333 100.693334c-2.438095 2.438095-5.607619 3.657143-8.777143 3.657143z" p-id="5714"></path><path d="M612.693333 906.971429a11.459048 11.459048 0 0 1-8.533333-3.657143l-100.693333-100.693334c-4.87619-4.87619-4.87619-12.434286 0-17.310476s12.434286-4.87619 17.310476 0l100.693333 100.693334c4.87619 4.87619 4.87619 12.434286 0 17.310476-2.681905 2.438095-5.851429 3.657143-8.777143 3.657143zM424.472381 767.512381a11.459048 11.459048 0 0 1-8.533333-3.657143c-4.87619-4.87619-4.87619-12.434286 0-17.310476l87.527619-87.527619c4.87619-4.87619 12.434286-4.87619 17.310476 0s4.87619 12.434286 0 17.310476l-87.527619 87.527619c-2.681905 2.438095-5.607619 3.657143-8.777143 3.657143z" p-id="5715"></path><path d="M599.527619 767.512381a11.459048 11.459048 0 0 1-8.533333-3.657143l-87.527619-87.527619c-4.87619-4.87619-4.87619-12.434286 0-17.310476s12.434286-4.87619 17.310476 0l87.527619 87.527619c4.87619 4.87619 4.87619 12.434286 0 17.310476-2.438095 2.438095-5.607619 3.657143-8.777143 3.657143z" p-id="5716"></path><path d="M512 524.190476c-1.950476 0-4.144762-0.487619-6.095238-1.706666l-375.466667-216.746667c-5.851429-3.413333-7.801905-10.727619-4.388571-16.579048s10.727619-7.801905 16.579047-4.388571l375.466667 216.746666c5.851429 3.413333 7.801905 10.727619 4.388572 16.579048-2.194286 3.900952-6.339048 6.095238-10.48381 6.095238z" p-id="5717"></path><path d="M267.459048 383.024762c-5.36381 0-10.24-3.657143-11.702858-9.020952L218.940952 236.495238c-1.706667-6.339048 2.194286-13.165714 8.777143-14.872381 6.339048-1.706667 13.165714 2.194286 14.872381 8.777143l36.815238 137.508571a12.190476 12.190476 0 0 1-8.533333 14.872381c-1.219048 0.24381-2.194286 0.24381-3.413333 0.24381z" p-id="5718"></path><path d="M130.194286 419.84a12.190476 12.190476 0 0 1-3.169524-23.893333l137.508571-36.815238a12.190476 12.190476 0 0 1 14.872381 8.533333 12.190476 12.190476 0 0 1-8.533333 14.872381L133.36381 419.352381c-1.219048 0.487619-2.194286 0.487619-3.169524 0.487619zM377.173333 446.415238c-5.36381 0-10.24-3.657143-11.702857-9.020952l-31.939047-119.710476a12.190476 12.190476 0 0 1 8.533333-14.872381 12.190476 12.190476 0 0 1 14.872381 8.533333l31.939047 119.710476a12.190476 12.190476 0 0 1-11.702857 15.36z" p-id="5719"></path><path d="M257.462857 478.354286a12.190476 12.190476 0 0 1-3.169524-23.893334l119.710477-31.939047c6.582857-1.706667 13.165714 2.194286 14.87238 8.533333s-2.194286 13.165714-8.533333 14.872381l-119.710476 31.939048c-0.975238 0.487619-2.194286 0.487619-3.169524 0.487619z" p-id="5720"></path><path d="M887.466667 740.937143c-1.950476 0-4.144762-0.487619-6.095238-1.706667l-375.466667-216.746666a12.01981 12.01981 0 0 1-4.388572-16.579048c3.413333-5.851429 10.727619-7.801905 16.579048-4.388572l375.466667 216.746667c5.851429 3.413333 7.801905 10.727619 4.388571 16.579048-2.194286 3.900952-6.339048 6.095238-10.483809 6.095238z" p-id="5721"></path><path d="M793.112381 802.864762c-5.36381 0-10.24-3.657143-11.702857-9.020952l-36.815238-137.508572a12.190476 12.190476 0 0 1 8.533333-14.872381 12.190476 12.190476 0 0 1 14.872381 8.533333l36.815238 137.508572a12.190476 12.190476 0 0 1-8.533333 14.872381c-0.975238 0.24381-1.950476 0.487619-3.169524 0.487619z" p-id="5722"></path><path d="M756.297143 665.35619a12.190476 12.190476 0 0 1-3.169524-23.893333l137.508571-36.815238a12.190476 12.190476 0 0 1 14.872381 8.533333 12.190476 12.190476 0 0 1-8.533333 14.872381l-137.508571 36.815238c-0.975238 0.24381-1.950476 0.487619-3.169524 0.487619zM679.009524 721.67619c-5.36381 0-10.24-3.657143-11.702857-9.020952l-31.939048-119.710476a12.190476 12.190476 0 0 1 8.533333-14.872381 12.190476 12.190476 0 0 1 14.872381 8.533333l31.939048 119.710476a12.190476 12.190476 0 0 1-8.533333 14.872381c-1.219048 0.24381-2.194286 0.487619-3.169524 0.487619z" p-id="5723"></path><path d="M646.826667 601.965714a12.190476 12.190476 0 0 1-3.169524-23.893333l119.710476-31.939048c6.582857-1.462857 13.165714 2.194286 14.872381 8.533334a12.190476 12.190476 0 0 1-8.533333 14.872381l-119.710477 31.939047c-0.975238 0.487619-2.194286 0.487619-3.169523 0.487619z" p-id="5724"></path><path d="M136.533333 740.937143c-4.144762 0-8.289524-2.194286-10.483809-6.095238a12.01981 12.01981 0 0 1 4.388571-16.579048l375.466667-216.746667c5.851429-3.413333 13.165714-1.462857 16.579048 4.388572s1.462857 13.165714-4.388572 16.579048l-375.466667 216.746666c-1.950476 1.219048-3.900952 1.706667-6.095238 1.706667z" p-id="5725"></path><path d="M267.702857 665.35619c-0.975238 0-2.194286-0.24381-3.169524-0.487619l-137.508571-36.815238a12.092952 12.092952 0 1 1 6.339048-23.405714l137.508571 36.815238c6.582857 1.706667 10.24 8.533333 8.533333 14.872381-1.462857 5.36381-6.339048 9.020952-11.702857 9.020952z" p-id="5726"></path><path d="M230.887619 802.864762c-0.975238 0-2.194286-0.24381-3.169524-0.487619a12.092952 12.092952 0 0 1-8.533333-14.872381l36.815238-137.508572a12.092952 12.092952 0 1 1 23.405714 6.339048l-36.815238 137.508572c-1.462857 5.36381-6.339048 9.020952-11.702857 9.020952zM377.173333 601.965714c-0.975238 0-2.194286-0.24381-3.169523-0.487619l-119.710477-31.939047a12.092952 12.092952 0 1 1 6.339048-23.405715l119.710476 31.939048c6.582857 1.706667 10.24 8.533333 8.533333 14.872381a11.946667 11.946667 0 0 1-11.702857 9.020952z" p-id="5727"></path><path d="M344.990476 721.67619c-0.975238 0-2.194286-0.24381-3.169524-0.487619a12.092952 12.092952 0 0 1-8.533333-14.872381l31.939048-119.710476a12.092952 12.092952 0 1 1 23.405714 6.339048l-31.939048 119.710476c-1.219048 5.36381-6.095238 9.020952-11.702857 9.020952z" p-id="5728"></path><path d="M512 524.190476c-4.144762 0-8.289524-2.194286-10.48381-6.095238a12.01981 12.01981 0 0 1 4.388572-16.579048l375.466667-216.746666c5.851429-3.413333 13.165714-1.462857 16.579047 4.388571s1.462857 13.165714-4.388571 16.579048l-375.466667 216.746667c-1.950476 1.219048-3.900952 1.706667-6.095238 1.706666z" p-id="5729"></path><path d="M893.805714 419.84c-0.975238 0-2.194286-0.24381-3.169524-0.487619l-137.264761-36.571429a12.092952 12.092952 0 1 1 6.339047-23.405714l137.508572 36.815238c6.582857 1.706667 10.24 8.533333 8.533333 14.872381-1.462857 5.12-6.582857 8.777143-11.946667 8.777143z" p-id="5730"></path><path d="M756.540952 383.024762c-0.975238 0-2.194286-0.24381-3.169523-0.487619a12.092952 12.092952 0 0 1-8.533334-14.872381l36.815238-137.508572a12.092952 12.092952 0 1 1 23.405715 6.339048l-36.815238 137.508572a11.946667 11.946667 0 0 1-11.702858 9.020952zM766.537143 478.354286c-0.975238 0-2.194286-0.24381-3.169524-0.487619l-119.710476-31.939048a12.092952 12.092952 0 1 1 6.339047-23.405714l119.710477 31.939047c6.582857 1.706667 10.24 8.533333 8.533333 14.872381-1.462857 5.36381-6.339048 9.020952-11.702857 9.020953z" p-id="5731"></path><path d="M646.826667 446.415238c-0.975238 0-2.194286-0.24381-3.169524-0.487619a12.092952 12.092952 0 0 1-8.533333-14.872381l31.939047-119.710476a12.092952 12.092952 0 1 1 23.405714 6.339048l-31.939047 119.710476c-1.462857 5.36381-6.339048 9.020952-11.702857 9.020952z" p-id="5732"></path></svg>