<?xml version="1.0" standalone="no"?><!DOCTYPE svg PUBLIC "-//W3C//DTD SVG 1.1//EN" "http://www.w3.org/Graphics/SVG/1.1/DTD/svg11.dtd"><svg t="1640773339497" class="icon" viewBox="0 0 1024 1024" version="1.1" xmlns="http://www.w3.org/2000/svg" p-id="4839" xmlns:xlink="http://www.w3.org/1999/xlink" width="200" height="200"><defs><style type="text/css"></style></defs><path d="M895.3 125.8c-1.8-14.7-14.1-25.9-28.9-26.3-7.7-0.2-189-4.2-294 90.1-84.3 75.7-91.6 188.1-90.4 236.5-8.8-11.4-18.8-22.3-30.2-32.6-105-94.3-286.4-90.3-294-90.1-14.8 0.4-27.1 11.6-28.9 26.3-0.8 6.6-18.8 163.2 88.9 259.9 81.1 72.8 207.6 87 264.7 89.6v186.4h-58.8c-16.6 0-30 13.4-30 30s13.4 30 30 30H602c16.6 0 30-13.4 30-30s-13.4-30-30-30h-59.5V475.3c57.3-2.7 183.3-17 264.1-89.6 107.5-96.7 89.5-253.3 88.7-259.9zM257.7 545c-34.7-31.2-57-75.1-66.2-130.5-3.2-19.4-4.2-37-4.3-50.4 50.8 2.7 159.2 15.5 224.4 74.1 34.7 31.2 57 75.1 66.2 130.5 3.2 19.4 4.2 37 4.3 50.4-50.8-2.7-159.1-15.5-224.4-74.1z m508.6-204c-65.1 58.5-173.1 71.3-224 74.1v-7c0-1.1-0.1-2.2-0.2-3.2 0.5-11.7 1.6-25.4 4.1-40.2 9.2-55.4 31.5-99.3 66.2-130.5 65.3-58.6 173.7-71.4 224.5-74.1-0.3 42.5-9.4 126-70.6 180.9z" p-id="4840"></path></svg>