<?xml version="1.0" standalone="no"?><!DOCTYPE svg PUBLIC "-//W3C//DTD SVG 1.1//EN" "http://www.w3.org/Graphics/SVG/1.1/DTD/svg11.dtd"><svg t="1629956739474" class="icon" viewBox="0 0 1057 1024" version="1.1" xmlns="http://www.w3.org/2000/svg" p-id="7168" xmlns:xlink="http://www.w3.org/1999/xlink" width="132.125" height="128"><defs><style type="text/css"></style></defs><path d="M854.441558 1024h-651.636363C91.096104 1024 0 932.903896 0 821.194805v-618.38961C0 91.096104 91.096104 0 202.805195 0h651.636363C966.150649 0 1057.246753 91.096104 1057.246753 202.805195v618.38961c0 111.709091-91.096104 202.805195-202.805195 202.805195zM202.805195 19.948052C101.735065 19.948052 19.948052 101.735065 19.948052 202.805195v618.38961C19.948052 922.264935 101.735065 1004.051948 202.805195 1004.051948h651.636363c101.07013 0 182.857143-81.787013 182.857143-182.857143v-618.38961C1037.298701 101.735065 955.511688 19.948052 854.441558 19.948052h-651.636363z" p-id="7169"></path><path d="M15.293506 798.587013l34.576624-35.906494V172.883117h112.374026v246.690909h220.758441V172.883117h112.374026v625.703896H383.002597V525.298701H162.244156v273.288312H81.122078zM532.612987 798.587013V197.485714l-19.948052-24.602597H769.32987c59.844156 0 103.064935 5.319481 129.662338 16.623377s48.54026 31.251948 65.163636 59.844155c15.958442 28.592208 24.602597 61.838961 24.602598 98.41039 0 47.21039-12.633766 85.776623-37.236364 116.363636-24.602597 30.587013-61.174026 49.87013-110.379221 57.849351 24.602597 15.958442 44.550649 33.246753 60.509091 52.52987s37.236364 53.194805 63.833766 101.735065c21.942857 39.896104 38.566234 69.818182 49.87013 89.766234 3.98961 7.314286 17.288312 17.953247 39.896104 32.581818h-156.924675L817.87013 662.94026c-28.592208-48.54026-48.54026-79.127273-59.179221-91.761039-10.638961-12.633766-21.942857-21.277922-33.911688-25.932468s-30.587013-7.314286-56.519481-7.314285H644.987013v261.31948H532.612987zM644.987013 437.527273h83.116883c53.85974 0 87.771429-2.65974 101.07013-7.979221 13.298701-5.319481 23.937662-13.963636 31.251948-26.597403s11.303896-27.927273 11.303896-47.210389c0-21.277922-5.319481-37.901299-15.293506-51.2-9.974026-12.633766-23.937662-21.277922-42.555845-24.602598-9.309091-1.32987-36.571429-1.994805-82.451948-1.994805H644.987013v159.584416z" p-id="7170"></path></svg>