<?xml version="1.0" standalone="no"?><!DOCTYPE svg PUBLIC "-//W3C//DTD SVG 1.1//EN" "http://www.w3.org/Graphics/SVG/1.1/DTD/svg11.dtd"><svg t="1629956834836" class="icon" viewBox="0 0 1325 1024" version="1.1" xmlns="http://www.w3.org/2000/svg" p-id="7316" xmlns:xlink="http://www.w3.org/1999/xlink" width="165.625" height="128"><defs><style type="text/css"></style></defs><path d="M32.527059 24.395294A24.576 24.576 0 0 1 55.717647 0h57.042824a23.250824 23.250824 0 0 1 16.564705 7.288471 23.973647 23.973647 0 0 1 6.505412 17.106823V421.044706h468.028236V24.395294A23.913412 23.913412 0 0 1 626.989176 0h56.922353a24.576 24.576 0 0 1 23.130353 24.395294V935.454118a24.576 24.576 0 0 1-23.130353 24.395294h-56.922353a23.250824 23.250824 0 0 1-16.564705-7.228236 23.973647 23.973647 0 0 1-6.505412-17.167058V527.058824H135.469176v408.455529a23.913412 23.913412 0 0 1-23.070117 24.395294H55.657412a24.576 24.576 0 0 1-23.070118-24.395294V24.395294z m759.567059-24.094118h240.519529c145.889882 0 264.914824 143.600941 264.914824 297.140706-2.590118 120.350118-74.089412 228.050824-182.934589 275.636706l170.88753 356.894118c8.553412 16.745412 9.155765 33.731765-8.553412 33.731765l-70.776471 3.072a26.322824 26.322824 0 0 1-26.503529-19.275295l-180.163765-363.459764h-206.426353l-0.963764-101.978353h216.786823c101.255529-3.975529 182.633412-79.149176 183.536941-182.031059 0-98.304-73.426824-192.451765-183.536941-192.451765H792.094118V0.361412z" fill="#000000" p-id="7317"></path></svg>