<?xml version="1.0" standalone="no"?><!DOCTYPE svg PUBLIC "-//W3C//DTD SVG 1.1//EN" "http://www.w3.org/Graphics/SVG/1.1/DTD/svg11.dtd"><svg t="1629957657558" class="icon" viewBox="0 0 1024 1024" version="1.1" xmlns="http://www.w3.org/2000/svg" p-id="9038" xmlns:xlink="http://www.w3.org/1999/xlink" width="128" height="128"><defs><style type="text/css"></style></defs><path d="M147.060869 332.896856c0 18.427698 11.443633 33.600259 25.986861 34.465976 10.025331 63.524802 53.759391 111.299899 106.048291 111.299899 52.341089 0 96.019891-47.775096 106.099457-111.299899 0.63138 0 1.153266 0 1.784646 0 15.121396 0 27.249621-15.434527 27.249621-34.465976 0-16.903995-9.556657-31.026644-22.208814-33.991162l0.052189 0c0 0 29.29521-98.856495-32.234145-126.995369-7.401574-85.128843-157.12969-18.322297-157.12969-18.322297-77.069283 40.110533-39.952944 148.020218-39.952944 148.020218l0 0C153.411507 307.174008 147.060869 319.039243 147.060869 332.896856zM174.463985 305.755706c0.208754 0 0.525979 0 0.735757 0l2.206248 0.052189 0-8.004301 7.977695-45.938262c5.039783-7.716752 9.765411-12.416797 9.765411-12.416797 68.144006 2.942005 121.377418-30.922267 121.377418-30.922267 45.780673-35.279504 60.059887 98.908684 60.059887 98.908684l1.52268-0.209778 6.036483-1.209548c0.944512-0.209778 1.889023-0.261966 2.833535-0.261966 5.040806 0 9.818623 2.545986 13.648858 7.272637 4.043083 5.275143 6.405897 12.257162 6.405897 19.868513 0 7.560186-2.362814 14.624069-6.405897 19.793812-3.831258 4.723581-8.609075 7.351432-13.648858 7.351432-0.313132 0-0.735757 0-1.153266-0.081864l-6.876618-0.549515-1.209548 6.798846c-4.619204 29.582759-17.008372 56.305377-35.227316 75.521021-8.764618 9.370415-18.687618 16.773012-29.347398 21.89159-10.918677 5.066389-22.310122 7.742335-34.069957 7.742335-11.655458 0-23.153326-2.675946-34.073026-7.742335-10.602476-5.118578-20.473287-12.521175-29.451776-21.813818-18.005073-19.293415-30.500665-45.989427-35.226293-75.598792l-0.944512-5.853311-5.879917-0.314155c-10.393721-0.709151-19.058055-12.890588-19.058055-27.14422 0-7.611352 2.310625-14.59337 6.458085-19.868513C164.700621 308.302715 169.424202 305.755706 174.463985 305.755706z" p-id="9039"></path><path d="M590.678432 534.023596 476.49281 534.023596c-17.587564-22.917966-43.943838-42.394552-76.281337-56.409754l-94.235245 158.336168-11.55108-71.16276c7.716752-4.723581 12.809747-13.228279 12.809747-22.889313 0-15.014972-12.126178-27.088962-27.036773-27.088962-14.962783 0-26.984584 12.07399-26.984584 27.088962 0 9.661034 5.040806 18.165732 12.860912 22.889313l-11.338233 69.905116-93.554746-157.077501c-52.867068 22.862707-90.035596 60.293201-97.962126 103.842043l-1.680269 0 0 196.029652 4.357238 0c20.263509 13.547551 108.672048 23.836895 214.827787 23.836895 106.047268 0 194.507996-10.289344 214.824717-23.836895l4.307096 0L499.855914 581.454862l-1.681292 0c0-0.735757-0.316202-1.574868-0.420579-2.203178l92.924389 0 0 269.844821 215.771275 0 0-43.784202L634.565988 805.312302 634.565988 579.251683l171.883719 0 0-45.228087L634.565988 534.023596 634.565988 313.028343l171.883719 0 0-43.757596L590.678432 269.270746 590.678432 534.023596z" p-id="9040"></path><path d="M817.157583 205.349925l0 159.835312 152.668075 0L969.825658 205.349925 817.157583 205.349925zM943.049828 338.646813l-99.222839 0L843.826989 232.020354l99.222839 0L943.049828 338.646813z" p-id="9041"></path><path d="M817.157583 639.099746l152.668075 0L969.825658 479.237829 817.157583 479.237829 817.157583 639.099746zM843.826989 505.908258l99.222839 0 0 106.522082-99.222839 0L843.826989 505.908258z" p-id="9042"></path><path d="M817.157583 905.58403l152.668075 0L969.825658 745.778394 817.157583 745.778394 817.157583 905.58403zM843.826989 772.340353l99.222839 0 0 106.678648-99.222839 0L843.826989 772.340353z" p-id="9043"></path><path d="M212.997604 342.66329l41.001833 0c7.822153 0 14.123672-6.352685 14.123672-14.174837l0-12.966313 15.485693 0 0 12.966313c0 7.822153 6.30152 14.174837 14.122649 14.174837l41.001833 0c7.769964 0 14.122649-6.352685 14.122649-14.174837l0-25.90909c0-7.795547-6.352685-14.175861-14.122649-14.175861l-41.001833 0c-7.822153 0-14.122649 6.379291-14.122649 14.175861l0 8.795317-15.485693 0 0-8.795317c0-7.795547-6.30152-14.175861-14.123672-14.175861l-41.001833 0c-7.768941 0-14.174837 6.379291-14.174837 14.175861l0 25.90909C198.823789 336.310605 205.229686 342.66329 212.997604 342.66329zM286.759561 302.579363c0-6.089695 4.935406-10.998495 10.972912-10.998495l41.001833 0c5.984295 0 10.920724 4.9088 10.920724 10.998495l0 25.90909c0 6.010901-4.936429 10.9197-10.920724 10.9197l-41.001833 0c-6.036483 0-10.972912-4.9088-10.972912-10.9197L286.759561 302.579363zM202.131115 302.579363c0-6.089695 4.987594-10.998495 10.866489-10.998495l41.001833 0c6.036483 0 10.867512 4.9088 10.867512 10.998495l0 8.795317 0 4.146437 0 12.966313c0 6.010901-4.831029 10.9197-10.867512 10.9197l-41.001833 0c-5.879917 0-10.866489-4.9088-10.866489-10.9197L202.131115 302.579363z" p-id="9044"></path></svg>