<?xml version="1.0" standalone="no"?><!DOCTYPE svg PUBLIC "-//W3C//DTD SVG 1.1//EN" "http://www.w3.org/Graphics/SVG/1.1/DTD/svg11.dtd"><svg t="1635999412081" class="icon" viewBox="0 0 1024 1024" version="1.1" xmlns="http://www.w3.org/2000/svg" p-id="8050" xmlns:xlink="http://www.w3.org/1999/xlink" width="128" height="128"><defs><style type="text/css"></style></defs><path d="M411.6 887.1H197.9c-55 0-99.8-44.8-99.8-99.8V212.8c0-55 44.8-99.8 99.8-99.8h445.4c55 0 99.8 44.8 99.8 99.8v171c0 8.3-6.7 15-15 15s-15-6.7-15-15v-171c0-38.5-31.3-69.8-69.8-69.8H197.9c-38.5 0-69.8 31.3-69.8 69.8v574.5c0 38.5 31.3 69.8 69.8 69.8h213.7c8.3 0 15 6.7 15 15s-6.7 15-15 15z" p-id="8051"></path><path d="M632.1 297.6H225.6c-8.3 0-15-6.7-15-15s6.7-15 15-15h406.5c8.3 0 15 6.7 15 15s-6.7 15-15 15zM448.2 463.2H227.1c-8.3 0-15-6.7-15-15s6.7-15 15-15h221.1c8.3 0 15 6.7 15 15s-6.7 15-15 15zM371.1 620.1h-144c-8.3 0-15-6.7-15-15s6.7-15 15-15h144c8.3 0 15 6.7 15 15s-6.7 15-15 15zM704.6 705c-71.1 0-129-57.9-129-129s57.9-129 129-129 129 57.9 129 129c0 71.2-57.9 129-129 129z m0-227.9c-54.6 0-99 44.4-99 99s44.4 99 99 99 99-44.4 99-99-44.4-99-99-99z" p-id="8052"></path><path d="M689 907.6c-17.4 0-47.1-0.8-77.8-5.2-68.4-9.9-106.4-32.7-112.9-67.9-0.2-0.9-0.3-1.8-0.3-2.7 0-60.9 36.4-107.4 105.3-134.5 49.6-19.5 98.5-22 100.6-22.1h0.9c56.8 0.8 109.7 18.9 148.8 50.9 36.6 29.9 57.6 68.4 57.6 105.8 0 12.6-5.2 24.4-15.1 34.2-19.2 18.8-57.8 31.5-114.7 37.6-38.8 4.2-72.6 3.9-77 3.8-1.7-0.1-7.2 0.1-15.4 0.1z m-161-77.4c4.8 19.9 35.6 34.9 87.1 42.4 44.3 6.4 88 4.8 88.4 4.7h0.9c0.3 0 35.1 0.5 74.1-3.7 48.5-5.2 82.8-15.6 96.6-29.2 5.5-5.4 6.1-9.9 6.1-12.8 0-58.6-72.4-124.9-176.3-126.7-4.7 0.3-48.5 3.3-91.2 20.3-56.3 22.5-85.1 57.7-85.7 105z" p-id="8053"></path></svg>