<?xml version="1.0" standalone="no"?><!DOCTYPE svg PUBLIC "-//W3C//DTD SVG 1.1//EN" "http://www.w3.org/Graphics/SVG/1.1/DTD/svg11.dtd"><svg t="1629951619321" class="icon" viewBox="0 0 1024 1024" version="1.1" xmlns="http://www.w3.org/2000/svg" p-id="5424" xmlns:xlink="http://www.w3.org/1999/xlink" width="128" height="128"><defs><style type="text/css"></style></defs><path d="M296 817.984h432c5.312 0 8 2.688 8 8v56c0 5.376-2.688 8-8 8h-432c-5.312 0-8-2.624-8-8v-56c0-5.312 2.688-8 8-8zM892.032 158.08H131.968c-37.504 0-67.904 30.464-67.968 67.968v465.024c0 37.504 30.464 67.968 68.032 67.968h759.936c37.568 0 67.968-30.464 68.032-67.968V225.92c0-37.504-30.464-67.968-68.032-67.968z m-4.032 528.96H136v-456.96h752v456.96zM334.144 548.352a7.488 7.488 0 0 0 10.496 0l107.776-107.84 103.36 103.36a32 32 0 0 0 45.248 0l123.584-123.52v-0.064a6.4 6.4 0 0 0-0.064-9.088l-36.032-36.096a6.4 6.4 0 0 0-9.088-0.064L578.432 475.968 475.072 372.736a32 32 0 0 0-45.248 0L299.392 503.04a7.424 7.424 0 0 0 0 10.496l34.752 34.752z" p-id="5425" fill="#515151"></path></svg>