<?xml version="1.0" standalone="no"?><!DOCTYPE svg PUBLIC "-//W3C//DTD SVG 1.1//EN" "http://www.w3.org/Graphics/SVG/1.1/DTD/svg11.dtd"><svg t="1631186921694" class="icon" viewBox="0 0 1024 1024" version="1.1" xmlns="http://www.w3.org/2000/svg" p-id="18540" width="128" height="128" xmlns:xlink="http://www.w3.org/1999/xlink"><defs><style type="text/css"></style></defs><path d="M512 152c19.882 0 36 16.118 36 36v68h288c19.882 0 36 16.118 36 36s-16.118 36-36 36H548v472h145c19.882 0 36 16.118 36 36s-16.118 36-36 36H331c-19.882 0-36-16.118-36-36s16.118-36 36-36h145V328H188c-19.882 0-36-16.118-36-36s16.118-36 36-36h288v-68c0-19.882 16.118-36 36-36zM396 551c19.882 0 36 16.118 36 36 0 83.947-68.053 152-152 152s-152-68.053-152-152c0-19.882 16.118-36 36-36 19.683 0 35.677 15.797 35.995 35.405L200 587c0 44.183 35.817 80 80 80 43.741 0 79.283-35.104 79.99-78.677L360 587c0-19.882 16.118-36 36-36z m464 0c19.882 0 36 16.118 36 36 0 83.947-68.053 152-152 152s-152-68.053-152-152c0-19.882 16.118-36 36-36 19.683 0 35.677 15.797 35.995 35.405L664 587c0 44.183 35.817 80 80 80 43.741 0 79.283-35.104 79.99-78.677L824 587c0-19.882 16.118-36 36-36zM280.644 347.187c12.815-0.382 25.424 6.11 32.283 17.99l68.5 118.646c9.941 17.218 4.042 39.236-13.177 49.177-17.219 9.94-39.236 4.041-49.177-13.177L280.5 453.01l-38.573 66.812C231.986 537.04 209.969 542.94 192.75 533c-17.219-9.941-23.118-31.959-13.177-49.177l68.5-118.646c6.885-11.925 19.563-18.42 32.427-17.985z m464 0c12.815-0.382 25.424 6.11 32.283 17.99l68.5 118.646c9.941 17.218 4.042 39.236-13.177 49.177-17.219 9.94-39.236 4.041-49.177-13.177L744.5 453.01l-38.573 66.812C695.986 537.04 673.969 542.94 656.75 533c-17.219-9.941-23.118-31.959-13.177-49.177l68.5-118.646c6.885-11.925 19.563-18.42 32.427-17.985z" p-id="18541"></path></svg>