<?xml version="1.0" standalone="no"?><!DOCTYPE svg PUBLIC "-//W3C//DTD SVG 1.1//EN" "http://www.w3.org/Graphics/SVG/1.1/DTD/svg11.dtd"><svg t="1631179835306" class="icon" viewBox="0 0 1150 1024" version="1.1" xmlns="http://www.w3.org/2000/svg" p-id="1018" width="143.75" height="128" xmlns:xlink="http://www.w3.org/1999/xlink"><defs><style type="text/css"></style></defs><path d="M575.510439 26.323041L26.131475 552.986462m0 25.817481a25.90948 25.90948 0 0 1-18.245633-44.519106L557.628798 7.620417a25.817481 25.817481 0 1 1 35.671284 37.31225L44.103114 571.689086a26.091476 26.091476 0 0 1-17.971639 7.115857z m549.378964-552.480902l549.378964 526.663421" p-id="1019"></path><path d="M1124.889403 578.803943a26.091476 26.091476 0 0 1-18.245633-7.115857L557.628798 44.933667a25.817481 25.817481 0 1 1 35.671284-37.31225l549.378964 526.66342a25.90948 25.90948 0 0 1-18.246633 44.519106z m-194.591091 75.720479a364.91467 364.91467 0 0 1-729.829339 0l364.91467-364.91467z" p-id="1020"></path><path d="M565.383643 1024a369.932569 369.932569 0 0 1-369.475578-369.475578V652.60746l369.475578-369.384579L934.861221 652.699459v1.915961A369.932569 369.932569 0 0 1 565.383643 1024z m-360.352762-367.560616a360.352761 360.352761 0 0 0 720.705523 0l-360.352761-360.352762z" p-id="1021"></path></svg>