<?xml version="1.0" standalone="no"?><!DOCTYPE svg PUBLIC "-//W3C//DTD SVG 1.1//EN" "http://www.w3.org/Graphics/SVG/1.1/DTD/svg11.dtd"><svg t="1631583890233" class="icon" viewBox="0 0 1024 1024" version="1.1" xmlns="http://www.w3.org/2000/svg" p-id="13794" width="128" height="128" xmlns:xlink="http://www.w3.org/1999/xlink"><defs><style type="text/css"></style></defs><path d="M512 256v76.373333c0 19.2 23.04 28.586667 36.266667 14.933334l119.04-119.04c8.533333-8.533333 8.533333-21.76 0-30.293334l-119.04-119.04a21.333333 21.333333 0 0 0-36.266667 15.36V170.666667c-188.586667 0-341.333333 152.746667-341.333333 341.333333 0 44.373333 8.533333 87.04 24.32 125.866667 11.52 28.586667 48.213333 36.266667 69.973333 14.506666 11.52-11.52 16.213333-29.013333 9.813333-44.373333C262.4 578.56 256 545.706667 256 512c0-141.226667 114.773333-256 256-256z m247.04 115.626667c-11.52 11.52-16.213333 29.44-9.813333 44.373333 11.946667 29.866667 18.773333 62.293333 18.773333 96 0 141.226667-114.773333 256-256 256v-76.373333c0-19.2-23.04-28.586667-36.266667-14.933334l-119.04 119.04c-8.533333 8.533333-8.533333 21.76 0 30.293334l119.04 119.04a21.333333 21.333333 0 0 0 36.266667-14.933334V853.333333c188.586667 0 341.333333-152.746667 341.333333-341.333333 0-44.373333-8.533333-87.04-24.32-125.866667-11.52-28.586667-48.213333-36.266667-69.973333-14.506666z" p-id="13795"></path></svg>