<?xml version="1.0" standalone="no"?><!DOCTYPE svg PUBLIC "-//W3C//DTD SVG 1.1//EN" "http://www.w3.org/Graphics/SVG/1.1/DTD/svg11.dtd"><svg t="1636373408150" class="icon" viewBox="0 0 1024 1024" version="1.1" xmlns="http://www.w3.org/2000/svg" p-id="9840" xmlns:xlink="http://www.w3.org/1999/xlink" width="128" height="128"><defs><style type="text/css"></style></defs><path d="M734.4 703.8c4.7 4.7 10.8 7.1 17 7.1 6.1 0 12.3-2.3 16.9-7 9.4-9.4 9.4-24.6 0-33.9L576.8 478c-9.4-9.4-24.6-9.4-33.9 0-9.4 9.4-9.4 24.6 0 33.9l191.5 191.9zM588.1 734.1c4.7 4.7 10.8 7 17 7s12.3-2.3 17-7c9.4-9.4 9.4-24.6 0-33.9l-63.9-63.9c-9.4-9.4-24.6-9.4-33.9 0-9.4 9.4-9.4 24.6 0 33.9l63.8 63.9z" p-id="9841"></path><path d="M936.1 912h-39.9V382.7l40.2 0.1c8.1 0 15.7-4.1 20.1-10.9 4.4-6.8 5.1-15.4 1.8-22.9L854.1 77.7c-3.9-8.6-12.4-14.2-21.9-14.2H192.1c-9.5 0-18.1 5.6-21.9 14.2L66.5 348.9c-3.3 7.4-2.6 16 1.8 22.9 4.4 6.8 12 10.9 20.1 10.9l39.6-0.1V912H88c-13.3 0-24 10.7-24 24s10.7 24 24 24h848c13.3 0 24-10.7 24-24s-10.7-24-23.9-24z m-87.9-1.5H432.1V382.3l416.1 0.3v527.9zM134.7 334.7c-4.4 0-7.3-4.5-5.5-8.4L206 115.1c1-2.2 3.1-3.6 5.5-3.6h601.3c2.4 0 4.5 1.4 5.5 3.5l77.1 211.2c1.8 4-1.1 8.5-5.5 8.5m-505.8 47.6v528.2h-208V382.6l208-0.3z" p-id="9842"></path></svg>