<?xml version="1.0" standalone="no"?><!DOCTYPE svg PUBLIC "-//W3C//DTD SVG 1.1//EN" "http://www.w3.org/Graphics/SVG/1.1/DTD/svg11.dtd"><svg t="1631261451560" class="icon" viewBox="0 0 1024 1024" version="1.1" xmlns="http://www.w3.org/2000/svg" p-id="2518" xmlns:xlink="http://www.w3.org/1999/xlink" width="128" height="128"><defs><style type="text/css"></style></defs><path d="M512 922c19.78 0 41.36-1.798 64.737-5.395a36.674 36.674 0 0 0 28.667-24.293l15.39-44.94c17.383-5.993 34.466-13.186 51.25-21.578l41.993 21.3a36.136 36.136 0 0 0 38.029-3.318c19.181-13.786 35.665-27.872 49.452-42.258 14.386-13.787 28.472-30.27 42.258-49.452a37.098 37.098 0 0 0 2.886-37.672l-20.868-42.35a397.576 397.576 0 0 0 21.579-52.15l44.854-14.746a36.166 36.166 0 0 0 24.378-28.411C920.202 553.36 922 531.78 922 512c0-19.78-1.798-41.36-5.395-64.737a36.674 36.674 0 0 0-24.293-28.667l-44.94-15.39a397.576 397.576 0 0 0-21.578-52.149l21.19-43.005a34.89 34.89 0 0 0-3.208-36.118c-25.775-35.965-56.345-66.835-91.71-92.61a36.612 36.612 0 0 0-37.559-2.657l-42.463 21.54a397.576 397.576 0 0 0-52.15-21.58l-14.746-44.854a36.166 36.166 0 0 0-28.411-24.378C553.36 103.798 531.78 102 512 102c-19.78 0-41.36 1.798-64.737 5.395a35.92 35.92 0 0 0-28.52 23.864l-15.537 45.368c-17.982 5.994-35.066 13.187-51.25 21.58l-41.993-21.302a36.136 36.136 0 0 0-38.029 3.319c-35.365 25.775-65.935 56.345-91.71 91.71a37.098 37.098 0 0 0-2.886 37.672l20.868 42.35c-8.392 16.784-15.585 33.867-21.579 51.25l-44.94 15.39a36.674 36.674 0 0 0-24.292 28.667C103.798 470.64 102 492.22 102 512c0 19.78 1.798 41.36 5.395 64.737a36.674 36.674 0 0 0 24.293 28.667l44.94 15.39c5.993 17.982 13.186 35.066 21.578 51.25l-20.868 42.35a37.098 37.098 0 0 0 2.886 37.672c13.187 17.982 27.273 34.466 42.258 49.452 13.787 13.786 30.27 27.872 49.452 42.258a37.098 37.098 0 0 0 37.672 2.886l42.35-20.868c16.784 8.392 33.867 15.585 51.25 21.579l15.39 44.94a36.674 36.674 0 0 0 28.667 24.292C470.64 920.202 492.22 922 512 922z m-0.11-72c-11.146 0-23.465-0.88-36.957-2.64l-9.679-30.808-9.679-27.286-27.278-8.802c-16.425-5.282-31.97-11.737-46.635-19.365l-25.518-13.203-26.398 13.203-29.037 14.083c-9.973-7.628-19.065-15.843-27.278-24.646-8.799-8.215-17.012-17.31-24.638-27.286l27.278-54.573-13.199-25.526c-8.212-15.844-14.665-31.394-19.358-46.651l-8.8-28.167-58.074-19.364A261.175 261.175 0 0 1 174 512c0-11.15 0.88-23.472 2.64-36.969l58.075-19.364 8.799-27.287c4.693-15.844 11.146-31.394 19.358-46.65l13.199-26.407-13.199-25.526-14.079-29.047a310.55 310.55 0 0 1 51.916-51.932l54.555 27.286 26.398-13.203c14.665-8.215 30.21-14.67 46.635-19.365l27.278-8.802 8.8-27.286 10.558-31.688c13.492-1.173 25.811-1.76 36.957-1.76 11.732 0 24.051 0.587 36.957 1.76l19.358 58.974 27.278 7.922a335.9 335.9 0 0 1 47.515 19.365l25.518 14.083 54.555-28.167a374.313 374.313 0 0 1 52.796 52.813l-28.158 54.573 13.199 25.526c8.213 15.257 14.959 30.807 20.238 46.651l7.92 28.167 27.277 8.802 31.677 10.562c1.76 12.91 2.347 24.94 1.76 36.089v0.88c0 11.15-0.587 23.472-1.76 36.969l-31.677 9.682-27.278 9.682-8.799 28.167a257.668 257.668 0 0 1-18.478 45.77l-14.079 25.527 28.158 55.453c-8.213 9.976-16.426 19.071-24.638 27.286v0.88c-8.213 8.216-17.599 16.138-28.158 23.766l-54.555-27.286-25.518 13.203a335.9 335.9 0 0 1-47.515 19.365l-27.278 8.802-8.8 27.286-10.558 30.807A260.923 260.923 0 0 1 511.89 850z" p-id="2519"></path><path d="M512 332c99.411 0 180 80.589 180 180s-80.589 180-180 180-180-80.589-180-180 80.589-180 180-180z m0 72c-59.647 0-108 48.353-108 108s48.353 108 108 108 108-48.353 108-108-48.353-108-108-108z" p-id="2520"></path></svg>