<?xml version="1.0" standalone="no"?><!DOCTYPE svg PUBLIC "-//W3C//DTD SVG 1.1//EN" "http://www.w3.org/Graphics/SVG/1.1/DTD/svg11.dtd"><svg class="icon" width="128px" height="128.00px" viewBox="0 0 1024 1024" version="1.1" xmlns="http://www.w3.org/2000/svg"><path fill="#333333" d="M874.666667 533.333333v256a64 64 0 0 1-64 64H213.333333a64 64 0 0 1-64-64V533.333333h256v128h213.333334v-128h256z m-320 0v64h-85.333334v-64h85.333334z m85.333333-384a64 64 0 0 1 64 64v170.666667h42.666667v-85.333333h64a64 64 0 0 1 64 64v106.666666H149.333333v-106.666666a64 64 0 0 1 64-64h64v85.333333h42.666667v-170.666667a64 64 0 0 1 64-64h256z m0 64H384v85.333334h256v-85.333334z" /></svg>