<?xml version="1.0" standalone="no"?><!DOCTYPE svg PUBLIC "-//W3C//DTD SVG 1.1//EN" "http://www.w3.org/Graphics/SVG/1.1/DTD/svg11.dtd"><svg t="1631939117201" class="icon" viewBox="0 0 1024 1024" version="1.1" xmlns="http://www.w3.org/2000/svg" p-id="10278" xmlns:xlink="http://www.w3.org/1999/xlink" width="128" height="128"><defs><style type="text/css"></style></defs><path d="M404.48 0h-317.44c-48.128 0-87.04 38.912-87.04 87.04v317.44c0 48.128 38.912 87.04 87.04 87.04h317.44c48.128 0 87.04-38.912 87.04-87.04v-317.44c0-48.128-38.912-87.04-87.04-87.04z m20.48 404.48c0 11.264-9.216 20.48-20.48 20.48h-317.44c-11.264 0-20.48-9.216-20.48-20.48v-317.44c0-11.264 9.216-20.48 20.48-20.48h317.44c11.264 0 20.48 9.216 20.48 20.48v317.44zM404.48 532.48h-317.44c-48.128 0-87.04 38.912-87.04 87.04v317.44c0 48.128 38.912 87.04 87.04 87.04h317.44c48.128 0 87.04-38.912 87.04-87.04v-317.44c0-48.128-38.912-87.04-87.04-87.04z m20.48 404.48c0 11.264-9.216 20.48-20.48 20.48h-317.44c-11.264 0-20.48-9.216-20.48-20.48v-317.44c0-11.264 9.216-20.48 20.48-20.48h317.44c11.264 0 20.48 9.216 20.48 20.48v317.44zM935.936 532.48h-317.44c-48.128 0-87.04 38.912-87.04 87.04v317.44c0 48.128 38.912 87.04 87.04 87.04h317.44c48.128 0 87.04-38.912 87.04-87.04v-317.44c0-48.128-38.912-87.04-87.04-87.04z m20.48 404.48c0 11.264-9.216 20.48-20.48 20.48h-317.44c-11.264 0-20.48-9.216-20.48-20.48v-317.44c0-11.264 9.216-20.48 20.48-20.48h317.44c11.264 0 20.48 9.216 20.48 20.48v317.44zM923.136 133.12h-291.84c-18.432 0-33.28-14.848-33.28-33.28s14.848-33.28 33.28-33.28h291.84c18.432 0 33.28 14.848 33.28 33.28s-14.848 33.28-33.28 33.28zM923.136 424.96h-291.84c-18.432 0-33.28-14.848-33.28-33.28s14.848-33.28 33.28-33.28h291.84c18.432 0 33.28 14.848 33.28 33.28s-14.848 33.28-33.28 33.28zM923.136 279.04h-291.84c-18.432 0-33.28-14.848-33.28-33.28s14.848-33.28 33.28-33.28h291.84c18.432 0 33.28 14.848 33.28 33.28s-14.848 33.28-33.28 33.28z" p-id="10279"></path></svg>